<svg width="1441" height="606" viewBox="0 0 1441 606" fill="none" xmlns="http://www.w3.org/2000/svg">
<path d="M676.5 89.2965C980.77 -48.3373 1358.5 44.6532 1441 109.849V537.313C1264.5 485.49 867.4 439.886 699 522.267C530.6 604.649 163.5 536.133 0 514.401V44.653C126 109.849 343.5 239.926 676.5 89.2965Z" fill="#83DEA9"/>
<path d="M1108.5 4.3741C1188.9 -6.36995 1429.5 42.1796 1441 116.044V53.5939C1430.04 16.5269 1193.6 -11.0705 1108.5 4.3741Z" fill="#83DEA9"/>
<path d="M535 591.81C454.93 603.589 39.5001 568.6 1.00008 506.162L2.80199 568.6C14.8325 605.519 450.363 608.349 535 591.81Z" fill="#83DEA9"/>
</svg>
